<svg xmlns="http://www.w3.org/2000/svg" viewBox="0 0 24 24" height="24" width="24" preserveAspectRatio="xMidYMid meet" class="" version="1.1" x="0px" y="0px" enable-background="new 0 0 24 24"><title>link</title><path fill="#e9edef" d="M8.1,13.5h7.8v-1.9H8.1V13.5z M3.2,12.6c0-2.1,1.6-3.7,3.7-3.7h3.6V7.2H6.9c-2.9,0-5.4,2.4-5.4,5.4 c0,2.9,2.4,5.3,5.4,5.3h3.6v-1.7H6.9C4.8,16.2,3.2,14.6,3.2,12.6z M17.1,7.2h-3.5v1.7h3.5c2.1,0,3.7,1.6,3.7,3.7s-1.6,3.7-3.7,3.7 h-3.5V18h3.5c2.9,0,5.3-2.4,5.3-5.3C22.5,9.6,20,7.2,17.1,7.2z"/></svg>